# xmcd
#
# Track frame offsets: 
#        150
#        2961
#        22729
#        40953
#        56338
#        77648
#        98252
#        118147
#        145166
#        163913
#        181704
#        193141
#        200560
#        214031
#        263671
#        285525
#        304617
#
# Disc length: 4295 seconds
#
# Revision: 0
# Processed by: cddbd v1.5.1PL2 Copyright (c) Steve Scherf et al.
# Submitted via: ExactAudioCopy v0.95a4
#
DISCID=df10c511
DTITLE=Whiskeytown - Cat's Cradle - 12-31-99 - Set 1
DYEAR=1999
DGENRE=Country
TTITLE0=Intro
TTITLE1=Midway Park
TTITLE2=Drank Like a River
TTITLE3=Too Drunk to Dream
TTITLE4=Faithless Street
TTITLE5=Mining Town
TTITLE6=If He Can't Have You
TTITLE7=Black Arrow, Bleeding Heart
TTITLE8=Matrimony
TTITLE9=Ryan's Gift (Matrimony II)
TTITLE10=Hard Luck Story
TTITLE11=Tuning
TTITLE12=Revenge
TTITLE13=Lo-Fi Tennessee Mountain Angel
TTITLE14=Today
TTITLE15=Believe
TTITLE16=Helpless
EXTD=
EXTT0=
EXTT1=
EXTT2=
EXTT3=
EXTT4=
EXTT5=
EXTT6=
EXTT7=
EXTT8=
EXTT9=
EXTT10=
EXTT11=
EXTT12=
EXTT13=
EXTT14=
EXTT15=
EXTT16=
PLAYORDER=
